<svg width="28" height="28" viewBox="0 0 28 28" fill="none" xmlns="http://www.w3.org/2000/svg">
<path d="M12.0698 13.0681H5.78814L2.64776 7.62737L5.78814 2.18745H12.0698L15.2101 7.62737L12.0698 13.0681ZM6.25626 12.2579H11.6008L14.2748 7.62822L11.6008 2.99858H6.25276L3.57876 7.62822L6.25626 12.2579ZM22.9023 20.0769H16.6215L13.4811 14.6378L16.6215 9.19803H22.9031L26.0435 14.6378L22.9023 20.0769ZM17.0888 19.2666H22.4333L25.1073 14.6378L22.4333 10.0082H17.0888L14.4148 14.6378L17.0888 19.2666ZM11.4319 25.8134H5.15026L2.00989 20.3735L5.15026 14.9336H11.4319L14.5723 20.3735L11.4319 25.8134ZM5.61839 25.0031H10.9629L13.6369 20.3735L10.9629 15.7439H5.61839L2.94439 20.3735L5.61839 25.0031Z" fill="#4D4D4D"/>
</svg>
