<svg width="28" height="28" viewBox="0 0 28 28" fill="none" xmlns="http://www.w3.org/2000/svg">
<path d="M13.9851 2.625H13.9659C13.1627 2.62615 12.3677 2.78548 11.6261 3.09389C10.8845 3.4023 10.211 3.85376 9.64389 4.42248C8.4986 5.57106 7.85647 7.12756 7.85879 8.74957C7.86111 10.3716 8.50769 11.9262 9.65627 13.0715C10.8048 14.2168 12.3613 14.8589 13.9834 14.8566H14.0009C15.6194 14.8502 17.1696 14.2033 18.3127 13.0574C19.4558 11.9116 20.0988 10.3598 20.1014 8.74124V8.72287C20.096 7.10415 19.4493 5.55354 18.3029 4.41073C17.1565 3.26792 15.6038 2.6261 13.9851 2.62588V2.625ZM19.2902 8.75C19.2865 10.154 18.7261 11.4993 17.7319 12.4907C16.7377 13.4821 15.3909 14.0387 13.9869 14.0385H13.9737C13.2773 14.0376 12.5879 13.8995 11.9449 13.6322C11.3019 13.3648 10.7178 12.9734 10.226 12.4804C9.73427 11.9873 9.34443 11.4022 9.07878 10.7585C8.81313 10.1147 8.67688 9.42495 8.6778 8.72856C8.67871 8.03217 8.81679 7.34278 9.08413 6.69975C9.35148 6.05672 9.74286 5.47263 10.2359 4.98086C10.729 4.48909 11.3141 4.09925 11.9579 3.8336C12.6016 3.56795 13.2913 3.43171 13.9877 3.43263H14.0035C15.4073 3.43795 16.7518 3.99897 17.743 4.99298C18.7342 5.987 19.2915 7.33311 19.2929 8.73689L19.2902 8.75ZM3.93835 25.375H24.0634V21.3999C24.0634 16.0895 18.9245 16.0291 18.7057 16.0291C17.7918 16.0314 16.8874 16.2149 16.0449 16.569C14.7182 17.0064 13.2861 17.0064 11.9595 16.569C11.2835 16.2353 10.5438 16.0506 9.79036 16.0274C4.00486 16.0274 3.93835 20.8539 3.93835 20.902V25.375ZM4.74948 20.9046C4.74948 20.7392 4.80636 16.8429 9.79211 16.8429C10.4169 16.869 11.0296 17.0236 11.592 17.297C13.1528 17.8478 14.8551 17.8478 16.4159 17.297C17.1435 17.0022 17.9206 16.8487 18.7057 16.8446C18.8921 16.8446 23.2557 16.8962 23.2557 21.4034V24.5648H4.74861L4.74948 20.9046Z" fill="#4D4D4D"/>
</svg>
