<svg width="28" height="28" viewBox="0 0 28 28" fill="none" xmlns="http://www.w3.org/2000/svg">
<path d="M10.1447 21.875H10.185C10.2752 21.8749 10.362 21.8408 10.4282 21.7796L18.8177 14.2003L10.4361 6.22384C10.3675 6.16065 10.2774 6.12594 10.1841 6.12672H10.1692C10.1206 6.1283 10.0727 6.13963 10.0285 6.16007C9.98434 6.18052 9.94469 6.20964 9.91198 6.24571C9.90086 6.25671 9.89117 6.26907 9.88312 6.28248C9.82023 6.37222 9.79102 6.48126 9.80062 6.59042C9.81022 6.69958 9.85803 6.80183 9.93562 6.87921L17.6076 14.1863L17.5297 14.2572L9.94349 21.1146C9.86447 21.1895 9.81446 21.29 9.80229 21.3982C9.79012 21.5064 9.81658 21.6155 9.87699 21.7061C9.90663 21.752 9.94594 21.791 9.99219 21.8201C10.0384 21.8493 10.0905 21.868 10.1447 21.875Z" fill="#4D4D4D"/>
</svg>
