<svg width="24" height="24" viewBox="0 0 24 24" fill="none" xmlns="http://www.w3.org/2000/svg">
<path d="M12 3.46275L20.6055 10.77H19.0238V20.445C19.0238 20.5178 18.9949 20.5876 18.9434 20.6391C18.8919 20.6906 18.8221 20.7195 18.7493 20.7195H15.1643V17.3678C15.1777 17.2135 15.1607 17.0581 15.114 16.9105C15.0673 16.7629 14.992 16.626 14.8923 16.5075C14.7926 16.3891 14.6704 16.2915 14.533 16.2203C14.3955 16.1491 14.2453 16.1058 14.091 16.0928H9.91504C9.76054 16.1055 9.61008 16.1486 9.47229 16.2197C9.3345 16.2907 9.21212 16.3883 9.11212 16.5067C9.01213 16.6252 8.93651 16.7622 8.8896 16.91C8.8427 17.0578 8.82543 17.2133 8.83879 17.3678V20.7188H5.25377C5.18097 20.7187 5.11116 20.6898 5.05968 20.6383C5.0082 20.5869 4.97929 20.5171 4.97929 20.4443V10.7677H3.39754L12.0023 3.4605M12.0023 2.54775L1.50226 11.4638H4.28326V20.445C4.28326 20.7022 4.38544 20.9489 4.56731 21.1307C4.74917 21.3126 4.99584 21.4148 5.25304 21.4148H9.53326V17.3648C9.53326 17.043 9.70351 16.7828 9.91426 16.7828H14.091C14.3003 16.7828 14.4713 17.043 14.4713 17.3648V21.4148H18.7515C18.8789 21.4149 19.0051 21.3898 19.1229 21.3411C19.2406 21.2925 19.3476 21.221 19.4377 21.131C19.5278 21.0409 19.5994 20.934 19.6481 20.8163C19.6969 20.6986 19.722 20.5724 19.722 20.445V11.466H22.503L12.003 2.55L12.0023 2.54775Z" fill="#4D4D4D"/>
</svg>
