<svg width="28" height="28" viewBox="0 0 28 28" fill="none" xmlns="http://www.w3.org/2000/svg">
<path d="M14 28C21.732 28 28 21.732 28 14C28 6.26801 21.732 0 14 0C6.26801 0 0 6.26801 0 14C0 21.732 6.26801 28 14 28Z" fill="white"/>
<path d="M7.85313 20.7322H20.1469V18.3348C20.1469 18.2656 20.1469 18.1991 20.1469 18.1326C20.134 17.7184 20.0395 17.3109 19.8688 16.9333C19.6982 16.5556 19.4547 16.2154 19.1523 15.9321C18.8499 15.6487 18.4946 15.4278 18.1068 15.282C17.7189 15.1362 17.306 15.0684 16.8919 15.0824C16.3347 15.0842 15.7835 15.196 15.2696 15.4114C14.4454 15.6816 13.5564 15.6816 12.7321 15.4114C12.3202 15.2088 11.8697 15.0967 11.4109 15.0824C7.90562 15.0824 7.85488 18.0031 7.85488 18.032L7.85313 20.7322ZM11.4126 15.5015C11.8026 15.5175 12.185 15.6137 12.5361 15.7841C13.486 16.1174 14.521 16.1174 15.4709 15.7841C15.9227 15.6021 16.4048 15.5071 16.8919 15.5041C16.9487 15.5041 17.0074 15.5041 17.0669 15.5041C17.7955 15.5274 18.4851 15.8392 18.9839 16.3708C19.4827 16.9025 19.75 17.6105 19.7269 18.3391V20.314H8.27751V18.0329C8.27576 17.927 8.31162 15.5015 11.4109 15.5015H11.4126ZM14 14.2844C14.7339 14.2844 15.4514 14.0667 16.0617 13.659C16.6719 13.2512 17.1475 12.6717 17.4284 11.9936C17.7093 11.3155 17.7828 10.5694 17.6396 9.84954C17.4964 9.1297 17.143 8.4685 16.624 7.94953C16.105 7.43055 15.4438 7.07712 14.724 6.93394C14.0041 6.79075 13.258 6.86423 12.5799 7.1451C11.9018 7.42597 11.3223 7.90159 10.9145 8.51184C10.5068 9.12209 10.2891 9.83954 10.2891 10.5735C10.2919 11.5568 10.6838 12.4991 11.3791 13.1944C12.0744 13.8897 13.0167 14.2816 14 14.2844ZM14 7.28438C14.6505 7.28438 15.2864 7.47727 15.8273 7.83868C16.3682 8.2001 16.7898 8.71378 17.0388 9.31479C17.2877 9.9158 17.3528 10.5772 17.2259 11.2152C17.099 11.8532 16.7858 12.4393 16.3258 12.8993C15.8658 13.3592 15.2797 13.6725 14.6417 13.7994C14.0036 13.9263 13.3423 13.8612 12.7413 13.6122C12.1403 13.3633 11.6266 12.9417 11.2652 12.4008C10.9038 11.8599 10.7109 11.224 10.7109 10.5735C10.7134 9.70194 11.0608 8.86683 11.677 8.25055C12.2933 7.63427 13.1284 7.28692 14 7.28438ZM14 0.393761C16.6911 0.393761 19.3217 1.19174 21.5592 2.68682C23.7968 4.18189 25.5407 6.30691 26.5705 8.79312C27.6004 11.2793 27.8698 14.0151 27.3448 16.6544C26.8198 19.2938 25.5239 21.7182 23.6211 23.6211C21.7182 25.5239 19.2938 26.8198 16.6545 27.3448C14.0151 27.8698 11.2793 27.6004 8.79312 26.5705C6.3069 25.5407 4.18189 23.7968 2.68682 21.5592C1.19174 19.3217 0.393755 16.6911 0.393755 14C0.397692 10.3926 1.83246 6.93409 4.38328 4.38328C6.93409 1.83246 10.3926 0.397698 14 0.393761ZM14 0C11.2311 0 8.52431 0.821073 6.22202 2.35941C3.91973 3.89775 2.12532 6.08427 1.06569 8.64244C0.00606593 11.2006 -0.271181 14.0155 0.269012 16.7312C0.809205 19.447 2.14257 21.9416 4.10051 23.8995C6.05844 25.8574 8.553 27.1908 11.2687 27.731C13.9845 28.2712 16.7994 27.9939 19.3576 26.9343C21.9157 25.8747 24.1022 24.0803 25.6406 21.778C27.1789 19.4757 28 16.7689 28 14C28 10.287 26.525 6.726 23.8995 4.10049C21.274 1.47498 17.713 0 14 0Z" fill="#E20303"/>
</svg>
