<svg width="28" height="28" viewBox="0 0 28 28" fill="none" xmlns="http://www.w3.org/2000/svg">
<path d="M24.8981 9.49463L22.0754 3.83863C22.0536 3.79467 22.0234 3.75546 21.9864 3.72325C21.9494 3.69103 21.9064 3.66645 21.8599 3.65092C21.8134 3.63538 21.7642 3.6292 21.7153 3.63274C21.6664 3.63627 21.6187 3.64944 21.5749 3.6715L15.9145 6.49425C15.8295 6.54033 15.7658 6.6176 15.7367 6.70976C15.7077 6.80192 15.7155 6.90177 15.7586 6.98825C15.8018 7.07473 15.8768 7.14108 15.9679 7.17331C16.059 7.20554 16.1591 7.20113 16.247 7.161L20.9317 4.82475L15.9442 19.8424C15.866 19.8301 15.7871 19.8222 15.708 19.8188C15.5307 19.8209 15.3543 19.845 15.183 19.8905L11.851 13.2309C12.2062 12.9469 12.464 12.5593 12.5887 12.122C12.7134 11.6847 12.6987 11.2194 12.5466 10.7909C12.3946 10.3623 12.1128 9.99178 11.7403 9.73083C11.3679 9.46987 10.9235 9.33146 10.4688 9.33484C10.014 9.33823 9.57167 9.48323 9.20319 9.7497C8.83471 10.0162 8.55843 10.3908 8.41277 10.8216C8.26712 11.2524 8.25933 11.7178 8.39049 12.1532C8.52166 12.5887 8.78525 12.9724 9.14461 13.251L5.81961 19.901C5.63471 19.8469 5.44347 19.8175 5.25086 19.8135C4.72762 19.8082 4.21946 19.9887 3.8168 20.3229C3.41415 20.657 3.14312 21.1232 3.05194 21.6385C2.96077 22.1538 3.05536 22.6847 3.31888 23.1367C3.58241 23.5888 3.99777 23.9327 4.49107 24.1073C4.98437 24.2818 5.5236 24.2757 6.0128 24.09C6.50201 23.9043 6.90946 23.551 7.16266 23.0931C7.41585 22.6352 7.49837 22.1023 7.39552 21.5892C7.29267 21.0761 7.01112 20.6162 6.60099 20.2913L9.92599 13.636C10.1074 13.6876 10.2948 13.715 10.4834 13.7174C10.6827 13.7152 10.8809 13.6857 11.0722 13.6299L14.3902 20.2668C14.0137 20.5502 13.7388 20.9477 13.6065 21.4001C13.4741 21.8524 13.4914 22.3354 13.6557 22.7771C13.8201 23.2188 14.1227 23.5956 14.5185 23.8515C14.9143 24.1073 15.3822 24.2285 15.8524 24.1969C16.3227 24.1654 16.7701 23.9828 17.1282 23.6764C17.4863 23.3699 17.7358 22.956 17.8397 22.4963C17.9435 22.0366 17.8961 21.5556 17.7045 21.125C17.5129 20.6945 17.1874 20.3372 16.7764 20.1066L21.8024 4.96913H21.8076L24.2296 9.8245C24.2504 9.87002 24.2801 9.91088 24.317 9.94466C24.3539 9.97845 24.3972 10.0045 24.4444 10.0211C24.4916 10.0378 24.5416 10.0448 24.5915 10.0418C24.6415 10.0387 24.6903 10.0256 24.7351 10.0033C24.7798 9.98098 24.8197 9.94987 24.8521 9.91182C24.8846 9.87378 24.9091 9.82959 24.9242 9.78188C24.9392 9.73416 24.9445 9.68391 24.9398 9.63411C24.935 9.58431 24.9202 9.53598 24.8964 9.492M5.24999 23.3196C4.90189 23.3196 4.56805 23.1813 4.32191 22.9352C4.07577 22.6891 3.93749 22.3552 3.93749 22.0071C3.93749 21.659 4.07577 21.3252 4.32191 21.079C4.56805 20.8329 4.90189 20.6946 5.24999 20.6946C5.31929 20.6958 5.38837 20.7028 5.45649 20.7156C5.57735 20.7347 5.69508 20.77 5.80649 20.8206C5.84124 20.8376 5.87512 20.8563 5.90799 20.8766C5.99954 20.9282 6.08446 20.9908 6.16086 21.063C6.34894 21.2446 6.47849 21.4783 6.53289 21.734C6.58729 21.9898 6.56407 22.2559 6.4662 22.4984C6.36834 22.7409 6.20029 22.9486 5.9836 23.0949C5.7669 23.2412 5.51145 23.3195 5.24999 23.3196ZM10.2532 12.824C10.1507 12.8066 10.0505 12.7773 9.95486 12.7365C9.9087 12.7152 9.86398 12.691 9.82099 12.6639C9.5507 12.5009 9.34872 12.2454 9.25252 11.9448C9.15632 11.6442 9.17243 11.3189 9.29788 11.0292C9.42332 10.7396 9.64957 10.5053 9.93464 10.3699C10.2197 10.2344 10.5443 10.2069 10.848 10.2926C11.1518 10.3782 11.4142 10.5712 11.5865 10.8356C11.7588 11.1 11.8294 11.418 11.7851 11.7305C11.7407 12.043 11.5846 12.3288 11.3455 12.5349C11.1064 12.741 10.8007 12.8533 10.4851 12.8511C10.4073 12.8499 10.3297 12.842 10.2532 12.8275M15.7089 23.3196C15.4484 23.3191 15.194 23.241 14.9781 23.0955C14.7621 22.9499 14.5943 22.7434 14.4961 22.5022C14.3979 22.2609 14.3736 21.996 14.4265 21.7409C14.4793 21.4859 14.6068 21.2524 14.7927 21.07L14.805 21.0954C15.0101 20.884 15.2804 20.7478 15.5724 20.7086C15.6176 20.7013 15.6631 20.6966 15.7089 20.6946C16.057 20.6946 16.3908 20.8329 16.6369 21.079C16.8831 21.3252 17.0214 21.659 17.0214 22.0071C17.0214 22.3552 16.8831 22.6891 16.6369 22.9352C16.3908 23.1813 16.057 23.3196 15.7089 23.3196Z" fill="#E20303"/>
</svg>
