<svg width="28" height="28" viewBox="0 0 28 28" fill="none" xmlns="http://www.w3.org/2000/svg">
<path d="M18.067 21.1216L10.395 13.8153L10.4729 13.7444L18.0591 6.88794C18.1382 6.813 18.1882 6.71255 18.2003 6.60433C18.2125 6.4961 18.186 6.38706 18.1256 6.29644C18.096 6.24958 18.0565 6.20969 18.01 6.17949C17.9635 6.14928 17.911 6.1295 17.8561 6.12146H17.8185C17.7279 6.12156 17.6407 6.15594 17.5744 6.2177L9.1875 13.7961L17.5665 21.7796C17.6023 21.8128 17.6443 21.8387 17.6901 21.8557C17.7359 21.8726 17.7846 21.8804 17.8334 21.8784C17.8822 21.8765 17.9301 21.8648 17.9744 21.8443C18.0187 21.8237 18.0585 21.7946 18.0915 21.7586C18.1026 21.7465 18.1128 21.7336 18.1221 21.7201C18.1851 21.6299 18.2142 21.5203 18.2041 21.4107C18.194 21.3012 18.1454 21.1987 18.067 21.1216Z" fill="#4D4D4D"/>
</svg>
