<svg width="28" height="28" viewBox="0 0 28 28" fill="none" xmlns="http://www.w3.org/2000/svg">
<path d="M24.08 5.74H3.92C3.80861 5.74 3.70178 5.69575 3.62301 5.61699C3.54425 5.53822 3.5 5.43139 3.5 5.32C3.5 5.20861 3.54425 5.10178 3.62301 5.02302C3.70178 4.94425 3.80861 4.9 3.92 4.9H24.08C24.1914 4.9 24.2982 4.94425 24.377 5.02302C24.4557 5.10178 24.5 5.20861 24.5 5.32C24.5 5.43139 24.4557 5.53822 24.377 5.61699C24.2982 5.69575 24.1914 5.74 24.08 5.74ZM24.5 13.965C24.5 13.8536 24.4557 13.7468 24.377 13.668C24.2982 13.5893 24.1914 13.545 24.08 13.545H3.92C3.80861 13.545 3.70178 13.5893 3.62301 13.668C3.54425 13.7468 3.5 13.8536 3.5 13.965C3.5 14.0764 3.54425 14.1832 3.62301 14.262C3.70178 14.3408 3.80861 14.385 3.92 14.385H24.08C24.1352 14.385 24.1898 14.3741 24.2407 14.353C24.2917 14.3319 24.338 14.301 24.377 14.262C24.416 14.223 24.4469 14.1767 24.468 14.1257C24.4891 14.0748 24.5 14.0202 24.5 13.965ZM24.5 22.61C24.5001 22.5548 24.4893 22.5001 24.4683 22.4491C24.4472 22.3981 24.4163 22.3518 24.3772 22.3128C24.3382 22.2737 24.2919 22.2428 24.2409 22.2217C24.1899 22.2007 24.1352 22.1899 24.08 22.19H3.92C3.80861 22.19 3.70178 22.2343 3.62301 22.313C3.54425 22.3918 3.5 22.4986 3.5 22.61C3.5 22.7214 3.54425 22.8282 3.62301 22.907C3.70178 22.9858 3.80861 23.03 3.92 23.03H24.08C24.1912 23.03 24.2979 22.9859 24.3767 22.9073C24.4554 22.8287 24.4998 22.7212 24.5 22.61Z" fill="#4D4D4D"/>
</svg>
