<svg width="28" height="28" viewBox="0 0 28 28" fill="none" xmlns="http://www.w3.org/2000/svg">
<path d="M24.941 15.9293H21.063V14.3491C21.0639 14.2319 21.0184 14.1192 20.9364 14.0356C20.8544 13.9519 20.7426 13.9042 20.6255 13.9028H14.2048V12.0706H18.1886C18.2468 12.0706 18.3044 12.059 18.3581 12.0365C18.4118 12.014 18.4604 11.9809 18.5011 11.9394C18.5419 11.8978 18.5739 11.8485 18.5954 11.7944C18.6169 11.7404 18.6273 11.6825 18.6261 11.6243V3.07211C18.6271 2.95499 18.5815 2.84226 18.4995 2.75862C18.4176 2.67498 18.3057 2.62724 18.1886 2.62585H9.81139C9.7532 2.62584 9.69557 2.6374 9.64191 2.65993C9.58825 2.68246 9.53963 2.71546 9.49889 2.75702C9.45815 2.79858 9.42609 2.84787 9.40463 2.90196C9.38316 2.95606 9.37273 3.01393 9.37389 3.07211V11.6243C9.37273 11.6825 9.38316 11.7404 9.40463 11.7944C9.42609 11.8485 9.45815 11.8978 9.49889 11.9394C9.53963 11.9809 9.58825 12.014 9.64191 12.0365C9.69557 12.059 9.7532 12.0706 9.81139 12.0706H13.3298V13.9028H7.25112C7.19292 13.9028 7.13532 13.9144 7.08166 13.937C7.02801 13.9595 6.97939 13.9925 6.93864 14.0341C6.8979 14.0756 6.86585 14.1249 6.84438 14.179C6.82292 14.2331 6.81246 14.2909 6.81362 14.3491V15.9293H3.06601C3.00781 15.9293 2.95018 15.941 2.89652 15.9635C2.84286 15.986 2.79424 16.0191 2.7535 16.0606C2.71276 16.1022 2.68073 16.1514 2.65927 16.2054C2.6378 16.2595 2.62734 16.3174 2.62851 16.3756V24.9279C2.62734 24.9861 2.6378 25.0438 2.65927 25.0979C2.68073 25.152 2.71276 25.2013 2.7535 25.2429C2.79424 25.2844 2.84286 25.3174 2.89652 25.34C2.95018 25.3625 3.00781 25.3742 3.06601 25.3741H11.4433C11.5604 25.3728 11.6722 25.325 11.7542 25.2414C11.8362 25.1577 11.8817 25.045 11.8808 24.9279V16.3756C11.8819 16.3174 11.8715 16.2595 11.85 16.2054C11.8285 16.1514 11.7965 16.1022 11.7557 16.0606C11.715 16.0191 11.6664 15.986 11.6127 15.9635C11.5591 15.941 11.5015 15.9293 11.4433 15.9293H7.69212V14.7919H20.188V15.9293H16.5629C16.5047 15.9293 16.4471 15.941 16.3934 15.9635C16.3398 15.986 16.2911 16.0191 16.2504 16.0606C16.2097 16.1022 16.1776 16.1514 16.1561 16.2054C16.1347 16.2595 16.1242 16.3174 16.1254 16.3756V24.9279C16.1244 25.045 16.17 25.1577 16.252 25.2414C16.334 25.325 16.4457 25.3728 16.5629 25.3741H24.941C25.0581 25.3728 25.1699 25.325 25.2519 25.2414C25.3339 25.1577 25.3794 25.045 25.3785 24.9279V16.3756C25.3797 16.3174 25.3692 16.2595 25.3477 16.2054C25.3263 16.1514 25.2943 16.1022 25.2535 16.0606C25.2128 16.0191 25.1641 15.986 25.1105 15.9635C25.0568 15.941 24.9992 15.9293 24.941 15.9293ZM10.2524 3.51837H17.7546V11.1772H10.2524V3.51837ZM11.0058 24.4816H3.50351V16.8227H11.0058V24.4816ZM24.5035 24.4816H17.0004V16.8227H24.5035V24.4816Z" fill="#4D4D4D"/>
</svg>
