<svg width="126" height="28" viewBox="0 0 126 28" fill="none" xmlns="http://www.w3.org/2000/svg">
<path d="M76.9141 9.04102L72.207 22H70.2832L75.7031 7.78125H76.9434L76.9141 9.04102ZM80.8594 22L76.1426 9.04102L76.1133 7.78125H77.3535L82.793 22H80.8594ZM80.6152 16.7363V18.2793H72.627V16.7363H80.6152ZM86.2305 13.0938V22H84.4238V11.4336H86.1816L86.2305 13.0938ZM89.5312 11.375L89.5215 13.0547C89.3717 13.0221 89.2285 13.0026 89.0918 12.9961C88.9616 12.9831 88.8118 12.9766 88.6426 12.9766C88.2259 12.9766 87.8581 13.0417 87.5391 13.1719C87.2201 13.3021 86.9499 13.4844 86.7285 13.7188C86.5072 13.9531 86.3314 14.2331 86.2012 14.5586C86.0775 14.8776 85.9961 15.2292 85.957 15.6133L85.4492 15.9062C85.4492 15.2682 85.5111 14.6693 85.6348 14.1094C85.765 13.5495 85.9635 13.0547 86.2305 12.625C86.4974 12.1888 86.8359 11.8503 87.2461 11.6094C87.6628 11.362 88.1576 11.2383 88.7305 11.2383C88.8607 11.2383 89.0104 11.2546 89.1797 11.2871C89.349 11.3132 89.4661 11.3424 89.5312 11.375ZM91.1914 7H93.0078V19.9492L92.8516 22H91.1914V7ZM100.146 16.6289V16.834C100.146 17.6022 100.055 18.3151 99.873 18.9727C99.6908 19.6237 99.4238 20.1901 99.0723 20.6719C98.7207 21.1536 98.291 21.528 97.7832 21.7949C97.2754 22.0618 96.6927 22.1953 96.0352 22.1953C95.3646 22.1953 94.7754 22.0814 94.2676 21.8535C93.7663 21.6191 93.3431 21.2839 92.998 20.8477C92.653 20.4115 92.3763 19.8841 92.168 19.2656C91.9661 18.6471 91.8262 17.9505 91.748 17.1758V16.2773C91.8262 15.4961 91.9661 14.7962 92.168 14.1777C92.3763 13.5592 92.653 13.0319 92.998 12.5957C93.3431 12.153 93.7663 11.8177 94.2676 11.5898C94.7689 11.3555 95.3516 11.2383 96.0156 11.2383C96.6797 11.2383 97.2689 11.3685 97.7832 11.6289C98.2975 11.8828 98.7272 12.2474 99.0723 12.7227C99.4238 13.1979 99.6908 13.7676 99.873 14.4316C100.055 15.0892 100.146 15.8216 100.146 16.6289ZM98.3301 16.834V16.6289C98.3301 16.1016 98.2812 15.6068 98.1836 15.1445C98.0859 14.6758 97.9297 14.2656 97.7148 13.9141C97.5 13.556 97.2168 13.276 96.8652 13.0742C96.5137 12.8659 96.0807 12.7617 95.5664 12.7617C95.1107 12.7617 94.7135 12.8398 94.375 12.9961C94.043 13.1523 93.7598 13.3639 93.5254 13.6309C93.291 13.8913 93.099 14.1908 92.9492 14.5293C92.806 14.8613 92.6986 15.2064 92.627 15.5645V17.918C92.7311 18.3737 92.9004 18.8132 93.1348 19.2363C93.3757 19.653 93.6947 19.9948 94.0918 20.2617C94.4954 20.5286 94.9935 20.6621 95.5859 20.6621C96.0742 20.6621 96.4909 20.5645 96.8359 20.3691C97.1875 20.1673 97.4707 19.8906 97.6855 19.5391C97.9069 19.1875 98.0697 18.7806 98.1738 18.3184C98.278 17.8561 98.3301 17.3613 98.3301 16.834ZM106.816 22.1953C106.081 22.1953 105.413 22.0716 104.814 21.8242C104.222 21.5703 103.711 21.2155 103.281 20.7598C102.858 20.304 102.533 19.7637 102.305 19.1387C102.077 18.5137 101.963 17.8301 101.963 17.0879V16.6777C101.963 15.8184 102.09 15.0534 102.344 14.3828C102.598 13.7057 102.943 13.1328 103.379 12.6641C103.815 12.1953 104.31 11.8405 104.863 11.5996C105.417 11.3587 105.99 11.2383 106.582 11.2383C107.337 11.2383 107.988 11.3685 108.535 11.6289C109.089 11.8893 109.541 12.2539 109.893 12.7227C110.244 13.1849 110.505 13.7318 110.674 14.3633C110.843 14.9883 110.928 15.6719 110.928 16.4141V17.2246H103.037V15.75H109.121V15.6133C109.095 15.1445 108.997 14.6888 108.828 14.2461C108.665 13.8034 108.405 13.4388 108.047 13.1523C107.689 12.8659 107.201 12.7227 106.582 12.7227C106.172 12.7227 105.794 12.8105 105.449 12.9863C105.104 13.1556 104.808 13.4095 104.561 13.748C104.313 14.0866 104.121 14.5 103.984 14.9883C103.848 15.4766 103.779 16.0397 103.779 16.6777V17.0879C103.779 17.5892 103.848 18.0612 103.984 18.5039C104.128 18.9401 104.333 19.3242 104.6 19.6562C104.873 19.9883 105.202 20.2487 105.586 20.4375C105.977 20.6263 106.419 20.7207 106.914 20.7207C107.552 20.7207 108.092 20.5905 108.535 20.3301C108.978 20.0697 109.365 19.7214 109.697 19.2852L110.791 20.1543C110.563 20.4993 110.273 20.8281 109.922 21.1406C109.57 21.4531 109.137 21.707 108.623 21.9023C108.115 22.0977 107.513 22.1953 106.816 22.1953ZM115 11.4336V22H113.184V11.4336H115ZM113.047 8.63086C113.047 8.33789 113.135 8.09049 113.311 7.88867C113.493 7.68685 113.76 7.58594 114.111 7.58594C114.456 7.58594 114.72 7.68685 114.902 7.88867C115.091 8.09049 115.186 8.33789 115.186 8.63086C115.186 8.91081 115.091 9.15169 114.902 9.35352C114.72 9.54883 114.456 9.64648 114.111 9.64648C113.76 9.64648 113.493 9.54883 113.311 9.35352C113.135 9.15169 113.047 8.91081 113.047 8.63086ZM122.324 11.4336V12.8203H116.611V11.4336H122.324ZM118.545 8.86523H120.352V19.3828C120.352 19.7409 120.407 20.0111 120.518 20.1934C120.628 20.3757 120.771 20.4961 120.947 20.5547C121.123 20.6133 121.312 20.6426 121.514 20.6426C121.663 20.6426 121.82 20.6296 121.982 20.6035C122.152 20.571 122.279 20.5449 122.363 20.5254L122.373 22C122.23 22.0456 122.041 22.0879 121.807 22.127C121.579 22.1725 121.302 22.1953 120.977 22.1953C120.534 22.1953 120.127 22.1074 119.756 21.9316C119.385 21.7559 119.089 21.4629 118.867 21.0527C118.652 20.6361 118.545 20.0762 118.545 19.373V8.86523Z" fill="#9F9F9F"/>
<path d="M6.80664 16.9316H3.18359V14.6465H6.80664C7.36654 14.6465 7.82227 14.5553 8.17383 14.373C8.52539 14.1842 8.78255 13.9238 8.94531 13.5918C9.10807 13.2598 9.18945 12.8854 9.18945 12.4688C9.18945 12.0456 9.10807 11.6517 8.94531 11.2871C8.78255 10.9225 8.52539 10.6296 8.17383 10.4082C7.82227 10.1868 7.36654 10.0762 6.80664 10.0762H4.19922V22H1.26953V7.78125H6.80664C7.91992 7.78125 8.8737 7.98307 9.66797 8.38672C10.4688 8.78385 11.0807 9.33398 11.5039 10.0371C11.9271 10.7402 12.1387 11.5443 12.1387 12.4492C12.1387 13.3672 11.9271 14.1615 11.5039 14.832C11.0807 15.5026 10.4688 16.0202 9.66797 16.3848C8.8737 16.7493 7.91992 16.9316 6.80664 16.9316ZM14.1602 7.78125H19.4629C20.5501 7.78125 21.4844 7.94401 22.2656 8.26953C23.0534 8.59505 23.6589 9.07682 24.082 9.71484C24.5052 10.3529 24.7168 11.1374 24.7168 12.0684C24.7168 12.8301 24.5866 13.4844 24.3262 14.0312C24.0723 14.5716 23.7109 15.0241 23.2422 15.3887C22.7799 15.7467 22.2363 16.0332 21.6113 16.248L20.6836 16.7363H16.0742L16.0547 14.4512H19.4824C19.9967 14.4512 20.4232 14.36 20.7617 14.1777C21.1003 13.9954 21.3542 13.7415 21.5234 13.416C21.6992 13.0905 21.7871 12.7129 21.7871 12.2832C21.7871 11.8275 21.7025 11.4336 21.5332 11.1016C21.3639 10.7695 21.1068 10.5156 20.7617 10.3398C20.4167 10.1641 19.9837 10.0762 19.4629 10.0762H17.0898V22H14.1602V7.78125ZM22.1094 22L18.8672 15.6621L21.9629 15.6426L25.2441 21.8633V22H22.1094ZM38.6523 14.5586V15.2324C38.6523 16.3132 38.5059 17.2832 38.2129 18.1426C37.9199 19.002 37.5065 19.7344 36.9727 20.3398C36.4388 20.9388 35.8008 21.3978 35.0586 21.7168C34.3229 22.0358 33.5059 22.1953 32.6074 22.1953C31.7155 22.1953 30.8984 22.0358 30.1562 21.7168C29.4206 21.3978 28.7826 20.9388 28.2422 20.3398C27.7018 19.7344 27.2819 19.002 26.9824 18.1426C26.6895 17.2832 26.543 16.3132 26.543 15.2324V14.5586C26.543 13.4714 26.6895 12.5013 26.9824 11.6484C27.2754 10.7891 27.6888 10.0566 28.2227 9.45117C28.763 8.8457 29.401 8.38346 30.1367 8.06445C30.8789 7.74544 31.696 7.58594 32.5879 7.58594C33.4863 7.58594 34.3034 7.74544 35.0391 8.06445C35.7812 8.38346 36.4193 8.8457 36.9531 9.45117C37.4935 10.0566 37.9102 10.7891 38.2031 11.6484C38.5026 12.5013 38.6523 13.4714 38.6523 14.5586ZM35.6934 15.2324V14.5391C35.6934 13.7839 35.625 13.1198 35.4883 12.5469C35.3516 11.974 35.1497 11.4922 34.8828 11.1016C34.6159 10.7109 34.2904 10.418 33.9062 10.2227C33.5221 10.0208 33.0827 9.91992 32.5879 9.91992C32.0931 9.91992 31.6536 10.0208 31.2695 10.2227C30.8919 10.418 30.5697 10.7109 30.3027 11.1016C30.0423 11.4922 29.8438 11.974 29.707 12.5469C29.5703 13.1198 29.502 13.7839 29.502 14.5391V15.2324C29.502 15.9811 29.5703 16.6452 29.707 17.2246C29.8438 17.7975 30.0456 18.2826 30.3125 18.6797C30.5794 19.0703 30.9049 19.3665 31.2891 19.5684C31.6732 19.7702 32.1126 19.8711 32.6074 19.8711C33.1022 19.8711 33.5417 19.7702 33.9258 19.5684C34.3099 19.3665 34.6322 19.0703 34.8926 18.6797C35.153 18.2826 35.3516 17.7975 35.4883 17.2246C35.625 16.6452 35.6934 15.9811 35.6934 15.2324ZM46.3281 15.7598H42.6758L42.6562 13.748H45.7227C46.263 13.748 46.7057 13.6797 47.0508 13.543C47.3958 13.3997 47.653 13.1947 47.8223 12.9277C47.998 12.6543 48.0859 12.3223 48.0859 11.9316C48.0859 11.4889 48.0013 11.1309 47.832 10.8574C47.6693 10.584 47.4121 10.3854 47.0605 10.2617C46.7155 10.138 46.2695 10.0762 45.7227 10.0762H43.6914V22H40.7617V7.78125H45.7227C46.5495 7.78125 47.2884 7.85938 47.9395 8.01562C48.597 8.17188 49.1536 8.40951 49.6094 8.72852C50.0651 9.04753 50.4134 9.45117 50.6543 9.93945C50.8952 10.4212 51.0156 10.9941 51.0156 11.6582C51.0156 12.2441 50.8822 12.7845 50.6152 13.2793C50.3548 13.7741 49.9414 14.1777 49.375 14.4902C48.8151 14.8027 48.0827 14.9753 47.1777 15.0078L46.3281 15.7598ZM46.2012 22H41.875L43.0176 19.7148H46.2012C46.7155 19.7148 47.1354 19.6335 47.4609 19.4707C47.7865 19.3014 48.0273 19.0736 48.1836 18.7871C48.3398 18.5007 48.418 18.1719 48.418 17.8008C48.418 17.3841 48.3464 17.0228 48.2031 16.7168C48.0664 16.4108 47.8451 16.1764 47.5391 16.0137C47.2331 15.8444 46.8294 15.7598 46.3281 15.7598H43.5059L43.5254 13.748H47.041L47.7148 14.5391C48.5807 14.526 49.2773 14.679 49.8047 14.998C50.3385 15.3105 50.7259 15.7174 50.9668 16.2188C51.2142 16.7201 51.3379 17.2572 51.3379 17.8301C51.3379 18.7415 51.1393 19.5098 50.7422 20.1348C50.3451 20.7533 49.7624 21.2188 48.9941 21.5312C48.2324 21.8438 47.3014 22 46.2012 22ZM63.0762 19.7148V22H55.5078V19.7148H63.0762ZM56.4648 7.78125V22H53.5352V7.78125H56.4648ZM62.0898 13.5723V15.7988H55.5078V13.5723H62.0898ZM63.0664 7.78125V10.0762H55.5078V7.78125H63.0664Z" fill="#E20303"/>
</svg>
